<?xml version="1.0" standalone="no"?>
<!DOCTYPE svg PUBLIC "-//W3C//DTD SVG 20010904//EN"
 "http://www.w3.org/TR/2001/REC-SVG-20010904/DTD/svg10.dtd">
<svg version="1.0" xmlns="http://www.w3.org/2000/svg"
 width="282.000000pt" height="282.000000pt" viewBox="0 0 282.000000 282.000000"
 preserveAspectRatio="xMidYMid meet">
<metadata>
Created by potrace 1.11, written by Peter Selinger 2001-2013
</metadata>
<g transform="translate(0.000000,282.000000) scale(0.100000,-0.100000)"
fill="#000000" stroke="none">
<path d="M1447 1904 c-1 -1 -20 -4 -42 -7 -233 -33 -418 -258 -409 -497 4
-128 44 -225 127 -317 122 -133 310 -189 487 -143 223 57 377 269 363 500 -5
84 -18 132 -56 205 -61 115 -178 208 -303 240 -49 12 -160 25 -167 19z m0
-158 c3 -2 5 -90 5 -194 0 -155 -3 -195 -16 -221 -21 -40 -54 -61 -102 -64
-37 -2 -39 -1 -42 31 -3 28 0 34 26 43 18 6 32 19 35 32 3 12 5 101 5 197 1
96 1 178 1 181 1 7 81 2 88 -5z m194 5 l37 -1 -2 -277 c-2 -299 -4 -310 -58
-360 -25 -23 -83 -41 -134 -41 -31 -1 -31 0 -30 51 1 39 5 52 16 52 33 1 59
17 68 45 6 16 11 105 11 197 0 92 0 207 1 255 l0 87 28 -4 c15 -2 43 -4 63 -4z"/>
</g>
</svg>
